<?xml version="1.0" encoding="UTF-8"?>
<svg width="36px" height="36px" viewBox="0 0 36 36" version="1.1" xmlns="http://www.w3.org/2000/svg" xmlns:xlink="http://www.w3.org/1999/xlink">
    <title>chat</title>
    <g id="Page-1" stroke="none" stroke-width="1" fill="none" fill-rule="evenodd">
        <g id="Opt2_v7" transform="translate(-970.000000, -5483.000000)">
            <g id="Group-4" transform="translate(70.500000, 5331.000000)">
                <g id="Group-18" transform="translate(363.500000, 152.000000)">
                    <g id="chat" transform="translate(536.000000, 0.000000)">
                        <rect id="Rectangle" x="0" y="0" width="36" height="36"></rect>
                        <g id="Group" transform="translate(3.750000, 3.750000)" fill-rule="nonzero">
                            <path d="M6,6.75 L6.045,16.490625 C6.039375,17.7375 7.048125,18.75 8.295,18.75 L21.75,18.75 L22.5,18 L22.545,8.25 C22.545,7.00875 21.54,6.001875 20.296875,6 L6.75,6.005625 L6,6.75 Z" id="Path" fill="#188038"></path>
                            <path d="M6.375,16.115625 L6.375,6.375 L2.244375,6.375 C1.006875,6.37875 0.00375,7.381875 0,8.62125 L0,28.58625 C0,29.589375 1.17,30.09 1.87875,29.38125 L6.37875,24.75 L19.875,24.75 C21.118125,24.75 22.125,23.743125 22.125,22.5 L22.125,18.375 L8.625,18.375 C7.378125,18.375 6.369375,17.3625 6.375,16.115625 Z" id="Path" fill="#34A853"></path>
                            <path d="M22.125,18.375 L26.25,18.375 C27.493125,18.375 28.5,17.368125 28.5,16.125 L28.5,2.25 C28.5,1.006875 27.493125,0 26.25,0 L8.625,0 C7.37625,0 6.365625,1.018125 6.3749353,2.266875 L6.3749353,6.375 L19.92375,6.375 C21.165,6.376875 22.125,7.38 22.125,8.623125 L22.125,18.375 Z" id="Path" fill="#5BB974"></path>
                        </g>
                    </g>
                </g>
            </g>
        </g>
    </g>
</svg>